Coordinates
version=1
nRows=35
nColumns=38
inDegrees=no

Units are S.I. units (second, meters, Newtons, ...)
If the header above contains a line with 'inDegrees', this indicates whether rotational values are in degrees (yes) or radians (no).

endheader
time	pelvis_tilt	pelvis_list	pelvis_rotation	pelvis_tx	pelvis_ty	pelvis_tz	hip_flexion_r	hip_adduction_r	hip_rotation_r	knee_angle_r	ankle_angle_r	subtalar_angle_r	mtp_angle_r	hip_flexion_l	hip_adduction_l	hip_rotation_l	knee_angle_l	ankle_angle_l	subtalar_angle_l	mtp_angle_l	lumbar_extension	lumbar_bending	lumbar_rotation	arm_flex_r	arm_add_r	arm_rot_r	elbow_flex_r	pro_sup_r	wrist_flex_r	wrist_dev_r	arm_flex_l	arm_add_l	arm_rot_l	elbow_flex_l	pro_sup_l	wrist_flex_l	wrist_dev_l
2.67	-0.847425	1.34195	2.51416	0.648828	1.43812	1.0009	0.704133	-0.179604	0.186845	1.08753	-0.101682	0	0	0.385198	0.00295163	-0.20703	1.30719	-0.299609	0	0	-0.0626895	-0.203657	0.169476	0.239288	-0.354959	1.29318	0.490533	0.422446	0	0	0.203042	-0.371111	0.908958	0.415044	0.724552	0	0
2.68	-1.37022	1.24539	2.88467	0.668707	1.43305	0.99564	0.738813	-0.213346	0.404166	1.21283	-0.0804319	0	0	0.294463	0.101647	-0.400578	1.27985	-0.292079	0	0	-0.0880542	-0.353708	0.300835	0.354679	-0.391799	1.5708	0.581681	0.165552	0	0	0.272826	-0.436223	1.14323	0.486086	0.525089	0	0
2.69	-0.837392	1.33444	2.50679	0.647766	1.45298	1.00305	0.688853	-0.189297	0.177602	1.0845	-0.0890115	0	0	0.442212	0.00995089	-0.206288	1.33023	-0.290236	0	0	-0.0576368	-0.207465	0.160901	0.267083	-0.351618	1.3861	0.484786	0.334154	0	0	0.204044	-0.372929	0.916494	0.412783	0.704956	0	0
2.7	-0.822881	1.32929	2.49337	0.647131	1.46055	1.004	0.682892	-0.194143	0.172845	1.08119	-0.0834176	0	0	0.471191	0.0116876	-0.209729	1.33087	-0.286587	0	0	-0.0653709	-0.213236	0.170411	0.238421	-0.353806	1.25287	0.490099	0.454079	0	0	0.205017	-0.362494	0.837722	0.41318	0.800278	0	0
2.71	-0.815757	1.32469	2.48603	0.646586	1.46791	1.00482	0.676629	-0.201243	0.164617	1.07888	-0.0779396	0	0	0.497634	0.0151835	-0.213136	1.32587	-0.280546	0	0	-0.0651179	-0.216716	0.173138	0.237329	-0.353078	1.23858	0.488617	0.462438	0	0	0.208617	-0.360511	0.831049	0.412361	0.808442	0	0
2.72	-0.819205	1.32021	2.4864	0.646358	1.47494	1.00543	0.668897	-0.205295	0.165232	1.07659	-0.0722593	0	0	0.519606	0.0160494	-0.224309	1.31525	-0.275894	0	0	-0.0582084	-0.218925	0.169331	0.26528	-0.350562	1.3454	0.481158	0.363048	0	0	0.211834	-0.366671	0.878414	0.411822	0.746413	0	0
2.73	-0.820535	1.31606	2.48369	0.64616	1.48188	1.00628	0.662081	-0.211377	0.15928	1.07261	-0.0686789	0	0	0.539988	0.0168596	-0.235082	1.29827	-0.269066	0	0	-0.0608367	-0.223324	0.174934	0.266791	-0.350726	1.3355	0.479614	0.373608	0	0	0.216202	-0.364005	0.868108	0.411326	0.757454	0	0
2.74	-0.807547	1.3106	2.47131	0.645414	1.4893	1.00685	0.656528	-0.217788	0.15058	1.06785	-0.0638732	0	0	0.563651	0.0201549	-0.239352	1.27704	-0.262163	0	0	-0.0664127	-0.229071	0.185555	0.240076	-0.351284	1.21421	0.48207	0.486783	0	0	0.221671	-0.355448	0.820495	0.411063	0.820935	0	0
2.75	-0.809727	1.30682	2.47174	0.644904	1.49641	1.0074	0.649496	-0.223991	0.144852	1.06696	-0.0583623	0	0	0.58142	0.0236199	-0.245838	1.25184	-0.255587	0	0	-0.064977	-0.232211	0.18681	0.249587	-0.350178	1.24515	0.476919	0.459223	0	0	0.226876	-0.35692	0.842561	0.410078	0.794572	0	0
2.76	-0.804343	1.30234	2.46861	0.643933	1.50379	1.00773	0.642938	-0.232453	0.134747	1.06577	-0.0535153	0	0	0.599964	0.0292218	-0.24736	1.22218	-0.253052	0	0	-0.0639118	-0.235527	0.186648	0.250378	-0.348524	1.24278	0.473271	0.459948	0	0	0.230404	-0.356605	0.845879	0.409699	0.79242	0	0
2.77	-0.829364	1.30538	2.50658	0.642945	1.51335	1.00822	0.607867	-0.274842	0.0272241	1.0458	-0.0509292	0	0	0.601785	0.0336633	-0.246906	1.19139	-0.252082	0	0	-0.0690078	-0.238283	0.178065	0.246594	-0.344743	1.23996	0.471625	0.460865	0	0	0.2319	-0.361968	0.85374	0.413648	0.793119	0	0
2.78	-0.800162	1.29947	2.46405	0.643176	1.51821	1.00878	0.62314	-0.239387	0.121985	1.05949	-0.0445697	0	0	0.625039	0.0319369	-0.252837	1.15046	-0.258229	0	0	-0.0678673	-0.23883	0.188441	0.255706	-0.345767	1.24007	0.467317	0.4618	0	0	0.236652	-0.355024	0.840996	0.409327	0.800636	0	0
2.79	-0.80335	1.29939	2.46323	0.642954	1.5253	1.00928	0.613257	-0.23971	0.121802	1.05789	-0.0394571	0	0	0.6319	0.0310554	-0.25908	1.10945	-0.262952	0	0	-0.0710039	-0.239916	0.192579	0.259638	-0.346195	1.2425	0.465775	0.460152	0	0	0.240422	-0.353087	0.841679	0.408246	0.800276	0	0
2.8	-0.802813	1.29841	2.46208	0.642045	1.53261	1.00955	0.603611	-0.243445	0.11617	1.05656	-0.0340298	0	0	0.638741	0.0341729	-0.261172	1.06591	-0.266319	0	0	-0.0727732	-0.240874	0.193536	0.262208	-0.346752	1.24446	0.46476	0.459323	0	0	0.243087	-0.351439	0.842663	0.407325	0.800182	0	0
2.81	-0.800605	1.29713	2.46033	0.640843	1.53994	1.00967	0.594466	-0.248128	0.108953	1.05512	-0.0284359	0	0	0.644537	0.0395863	-0.260961	1.02045	-0.26727	0	0	-0.0740455	-0.241683	0.193038	0.264419	-0.347323	1.24551	0.463736	0.458522	0	0	0.245041	-0.349948	0.843232	0.4065	0.799937	0	0
2.82	-0.797857	1.29607	2.45732	0.63971	1.54722	1.0097	0.58593	-0.251521	0.103273	1.05361	-0.02382	0	0	0.648513	0.044777	-0.261012	0.973754	-0.264943	0	0	-0.0755897	-0.242256	0.192822	0.266875	-0.347997	1.24662	0.462845	0.459685	0	0	0.246719	-0.348707	0.843049	0.406239	0.799291	0	0
2.83	-0.796405	1.29525	2.45465	0.638628	1.55447	1.00967	0.577767	-0.254104	0.0991637	1.05245	-0.0200787	0	0	0.649965	0.0501308	-0.260384	0.92487	-0.261325	0	0	-0.0776622	-0.242986	0.193295	0.269109	-0.348785	1.24567	0.462061	0.460575	0	0	0.248423	-0.347653	0.842586	0.406232	0.799296	0	0
2.84	-0.794528	1.29364	2.45318	0.637361	1.56168	1.00961	0.570421	-0.258149	0.094659	1.0523	-0.0165614	0	0	0.65033	0.0579724	-0.25533	0.871749	-0.259162	0	0	-0.0805722	-0.244966	0.19709	0.260795	-0.350098	1.20177	0.463318	0.49857	0	0	0.252177	-0.344334	0.835204	0.406428	0.812475	0	0
2.85	-0.783402	1.28978	2.44546	0.63516	1.56935	1.00878	0.566048	-0.266164	0.0831618	1.05419	-0.0113825	0	0	0.65269	0.0714769	-0.238474	0.817409	-0.260495	0	0	-0.0766103	-0.245704	0.189597	0.268917	-0.349028	1.23607	0.459099	0.467843	0	0	0.250611	-0.347456	0.849782	0.40732	0.791107	0	0
2.86	-0.762953	1.28372	2.43643	0.631807	1.57753	1.00752	0.561842	-0.27966	0.0632927	1.05689	-0.00508256	0	0	0.657411	0.090438	-0.210455	0.759781	-0.263468	0	0	-0.0690749	-0.246264	0.179007	0.266262	-0.34729	1.238	0.455927	0.464875	0	0	0.246996	-0.348596	0.852283	0.408599	0.786687	0	0
2.87	-0.750783	1.28123	2.42992	0.629508	1.58556	1.00655	0.553618	-0.283904	0.0575778	1.0569	0.00170571	0	0	0.656337	0.102156	-0.186954	0.702105	-0.266205	0	0	-0.0680521	-0.246715	0.176335	0.256855	-0.347	1.20136	0.456429	0.497067	0	0	0.245298	-0.346853	0.83795	0.410131	0.805312	0	0
2.88	-0.743065	1.28011	2.42255	0.627768	1.59314	1.00571	0.547965	-0.288127	0.0504937	1.05906	0.00500733	0	0	0.652364	0.109833	-0.165403	0.643324	-0.271285	0	0	-0.0671775	-0.246092	0.17562	0.257208	-0.347731	1.2004	0.455723	0.498612	0	0	0.244581	-0.346355	0.838341	0.411303	0.803417	0	0
2.89	-0.761841	1.20501	2.44441	0.619403	1.59805	0.990813	0.620438	-0.432042	-0.13568	1.10169	0.00413093	0	0	0.70451	0.195823	-0.132722	0.585797	-0.265593	0	0	0.0311136	-0.299855	0.181026	0.264037	-0.357738	1.35378	0.475979	0.365891	0	0	0.232291	-0.375823	0.965483	0.434497	0.68156	0	0
2.9	-1.25904	1.2001	2.75682	0.64715	1.59384	0.998268	0.611261	-0.359621	0.305618	1.21539	0.0366145	0	0	0.525711	0.172933	-0.379552	0.478097	-0.288778	0	0	-0.0868227	-0.402303	0.328244	0.387083	-0.38631	1.5708	0.532631	0.174171	0	0	0.323774	-0.404013	1.14322	0.464771	0.524103	0	0
2.91	-1.25615	1.2003	2.75262	0.645655	1.60155	0.997085	0.606371	-0.363603	0.30231	1.22031	0.0415298	0	0	0.517982	0.178811	-0.360129	0.419283	-0.290294	0	0	-0.0814104	-0.40186	0.340726	0.382178	-0.389905	1.5708	0.532792	0.135974	0	0	0.349	-0.405078	1.25419	0.464855	0.422397	0	0
2.92	-1.2466	1.20295	2.7437	0.643741	1.60974	0.996107	0.60125	-0.364973	0.29692	1.22527	0.0448077	0	0	0.51082	0.181238	-0.341551	0.365019	-0.283372	0	0	-0.0809442	-0.398032	0.33758	0.381607	-0.388532	1.5708	0.529447	0.144675	0	0	0.340909	-0.404697	1.23009	0.466604	0.442943	0	0
2.93	-1.24506	1.20949	2.75058	0.641433	1.61951	0.995696	0.580358	-0.371322	0.274222	1.22356	0.0548019	0	0	0.495771	0.183679	-0.320774	0.313972	-0.265116	0	0	-0.0857177	-0.391486	0.327695	0.37753	-0.386223	1.5708	0.526278	0.162248	0	0	0.331815	-0.406708	1.20761	0.47086	0.465715	0	0
2.94	-1.23365	1.20696	2.73604	0.639754	1.62773	0.993139	0.566829	-0.383277	0.254818	1.20349	0.0632798	0	0	0.49806	0.182924	-0.327262	0.284252	-0.253055	0	0	-0.0768213	-0.392266	0.333942	0.371197	-0.388051	1.5708	0.528042	0.176427	0	0	0.326906	-0.408042	1.19765	0.475275	0.478212	0	0
2.95	-1.23751	1.19595	2.73777	0.638307	1.63607	0.989037	0.53382	-0.418858	0.202817	1.15015	0.0904311	0	0	0.498448	0.192268	-0.334236	0.257451	-0.23295	0	0	-0.0579207	-0.405699	0.385654	0.356141	-0.41611	1.5708	0.5636	0.0905633	0	0	0.407609	-0.405393	1.48868	0.483311	0.241954	0	0
2.96	-1.23759	1.19414	2.73823	0.636232	1.64513	0.987104	0.510347	-0.435674	0.169833	1.1244	0.101968	0	0	0.490414	0.197474	-0.327865	0.223919	-0.222155	0	0	-0.0468208	-0.403977	0.374019	0.349391	-0.398217	1.5708	0.539551	0.109192	0	0	0.391773	-0.416849	1.47877	0.492574	0.237936	0	0
2.97	-1.23601	1.19673	2.73635	0.633902	1.65435	0.986149	0.498492	-0.439684	0.160418	1.12336	0.103762	0	0	0.483143	0.197815	-0.326659	0.20179	-0.212365	0	0	-0.0493354	-0.400786	0.364833	0.351197	-0.395221	1.5708	0.536691	0.115198	0	0	0.366877	-0.421118	1.40053	0.496586	0.304113	0	0
2.98	-1.24369	1.19966	2.74328	0.631711	1.66379	0.985603	0.486915	-0.443458	0.15631	1.1299	0.104959	0	0	0.469587	0.200936	-0.31955	0.178355	-0.21033	0	0	-0.0515215	-0.399086	0.36669	0.346575	-0.394914	1.5708	0.534243	0.115736	0	0	0.365977	-0.42122	1.41023	0.498239	0.294886	0	0
2.99	-1.26302	1.21187	2.77665	0.629043	1.6758	0.98679	0.476957	-0.434029	0.171619	1.18197	0.0986355	0	0	0.446	0.201102	-0.303172	0.167586	-0.212122	0	0	-0.0652653	-0.39055	0.353816	0.337947	-0.390547	1.5708	0.528356	0.116864	0	0	0.362153	-0.423448	1.41435	0.499876	0.291602	0	0
3	-1.26471	1.20503	2.76247	0.627383	1.68289	0.984865	0.486619	-0.43314	0.206455	1.19054	0.100197	0	0	0.444858	0.207792	-0.300256	0.155955	-0.228008	0	0	-0.0581745	-0.397373	0.368948	0.337884	-0.392994	1.5708	0.528867	0.120365	0	0	0.36153	-0.422729	1.41754	0.502444	0.28524	0	0
3.01	-1.27813	1.21111	2.78347	0.625341	1.69368	0.984674	0.456295	-0.43669	0.189593	1.1843	0.10524	0	0	0.433526	0.208332	-0.289192	0.165867	-0.237137	0	0	-0.0642502	-0.394229	0.363573	0.330846	-0.389704	1.5708	0.526266	0.120592	0	0	0.359673	-0.427843	1.42285	0.508288	0.283668	0	0
